<svg xmlns="http://www.w3.org/2000/svg" width="24" height="24" fill="none" viewBox="0 0 24 24" id="cat">
  <path fill="#111" fill-rule="evenodd" d="M4.20872 4.91616C4.77453 4.42871 5.48138 4.25 6.09476 4.25C6.50319 4.25 6.92577 4.40675 7.26642 4.56067C7.62754 4.72384 8.00492 4.93584 8.34436 5.13132C8.41808 5.17377 8.48966 5.21523 8.55917 5.25548C8.82322 5.40842 9.05745 5.54408 9.26623 5.65166C9.39594 5.71849 9.49668 5.7643 9.57164 5.79206C9.60323 5.80376 9.62343 5.80966 9.63379 5.81242C9.88729 5.81102 10.0488 5.79033 10.282 5.76044C10.3321 5.75403 10.3854 5.74719 10.4437 5.74003C10.7904 5.69743 11.2279 5.65636 12 5.65636C12.7721 5.65636 13.2097 5.69743 13.5563 5.74003C13.6146 5.74719 13.668 5.75403 13.718 5.76044C13.9513 5.79033 14.1128 5.81102 14.3663 5.81242C14.3766 5.80966 14.3968 5.80377 14.4284 5.79206C14.5034 5.7643 14.6041 5.7185 14.7338 5.65167C14.9426 5.5441 15.1768 5.40844 15.4409 5.25552C15.5104 5.21526 15.582 5.17381 15.6557 5.13136C15.9951 4.9359 16.3725 4.72392 16.7336 4.56076C17.0743 4.40685 17.4968 4.25011 17.9053 4.25011C18.5186 4.25011 19.2255 4.42882 19.7913 4.91628C20.3778 5.42162 20.7301 6.18792 20.7301 7.18761V9.0625L20.7301 9.06545C20.7289 9.35941 20.679 9.94758 20.5113 10.4392C20.4331 10.6686 20.2881 11.0048 20.0013 11.2349C19.8412 11.3633 19.6297 11.4637 19.3759 11.4766C19.1272 11.4891 18.9057 11.4142 18.725 11.3101L18.6114 11.2447L18.5268 11.1447C18.3726 10.9625 18.1808 10.7813 17.9401 10.6045C17.6062 10.3594 17.5343 9.88999 17.7795 9.55611C18.0246 9.22224 18.494 9.15031 18.8279 9.39546C18.947 9.48292 19.0596 9.57282 19.1658 9.66506C19.2099 9.43686 19.2294 9.19817 19.2301 9.06087V7.18761C19.2301 6.56231 19.0237 6.23486 18.8122 6.0527C18.58 5.85266 18.2495 5.75011 17.9053 5.75011C17.8349 5.75011 17.6589 5.78868 17.3512 5.92771C17.064 6.0575 16.7431 6.23612 16.4042 6.43125C16.3406 6.4679 16.2758 6.50544 16.2105 6.54328C15.9427 6.69843 15.6659 6.85883 15.4208 6.98509C15.2662 7.06473 15.1051 7.14099 14.9494 7.19867C14.8057 7.25192 14.6069 7.3125 14.394 7.3125C14.0222 7.3125 13.7616 7.27877 13.5115 7.2464C13.4653 7.24042 13.4195 7.2345 13.3734 7.22883C13.0847 7.19336 12.7083 7.15636 12 7.15636C11.2918 7.15636 10.9153 7.19336 10.6266 7.22883C10.5805 7.2345 10.5347 7.24042 10.4886 7.2464C10.2385 7.27877 9.97786 7.3125 9.606 7.3125C9.39317 7.3125 9.19436 7.25191 9.05059 7.19866C8.89488 7.14098 8.73377 7.06471 8.57918 6.98506C8.33413 6.85879 8.05731 6.69838 7.78956 6.54323C7.72423 6.50538 7.65945 6.46784 7.5958 6.43118C7.25693 6.23603 6.93605 6.05741 6.64878 5.92761C6.34105 5.78856 6.16512 5.75 6.09476 5.75C5.75052 5.75 5.41997 5.85254 5.18778 6.05259C4.97634 6.23475 4.76995 6.56219 4.76995 7.1875V9.06088C4.77061 9.19819 4.79015 9.43686 4.83416 9.66506C4.94043 9.57281 5.05299 9.48292 5.1721 9.39546C5.50598 9.15031 5.97537 9.22224 6.22053 9.55612C6.46568 9.88999 6.39375 10.3594 6.05987 10.6045C5.81916 10.7813 5.62738 10.9625 5.47321 11.1447C5.04213 11.6541 4.85939 12.227 4.7889 12.8724C4.73688 13.3487 4.74761 13.8053 4.75927 14.3014C4.76451 14.5245 4.76994 14.7555 4.76993 15C4.76993 16.5328 5.77679 17.5801 7.30594 18.2835C8.83685 18.9877 10.7178 19.25 12 19.25C13.2822 19.25 15.1631 18.9877 16.694 18.2835C18.2232 17.58 19.2301 16.5328 19.2301 15H20.7301C20.7301 17.3734 19.1035 18.8262 17.3209 19.6462C15.5401 20.4654 13.431 20.75 12 20.75C10.5689 20.75 8.45988 20.4654 6.67907 19.6462C4.89649 18.8262 3.26993 17.3734 3.26993 15C3.26994 14.8291 3.26559 14.6411 3.26099 14.4419C3.24862 13.9063 3.23438 13.29 3.29777 12.7095C3.35894 12.1495 3.49355 11.5688 3.77755 11.0058C3.63119 10.8134 3.54356 10.6001 3.48871 10.4392C3.32101 9.94757 3.27111 9.35941 3.26995 9.06545L3.26995 9.0625V7.1875C3.26995 6.18781 3.62216 5.4215 4.20872 4.91616Z" clip-rule="evenodd"></path>
  <path fill="#111" fill-rule="evenodd" d="M11.1783 15.0796C11.4306 14.9818 11.7283 14.9374 12.0195 14.9374 12.3108 14.9374 12.6084 14.9818 12.8607 15.0796 12.9845 15.1275 13.1359 15.2031 13.2692 15.3252 13.4031 15.4479 13.576 15.6749 13.576 15.9999 13.576 16.3249 13.4031 16.5519 13.2692 16.6745 13.1359 16.7967 12.9845 16.8722 12.8607 16.9202 12.6084 17.018 12.3108 17.0624 12.0195 17.0624 11.7283 17.0624 11.4306 17.018 11.1783 16.9202 11.0545 16.8722 10.9031 16.7967 10.7698 16.6745 10.636 16.5519 10.4631 16.3249 10.4631 15.9999 10.4631 15.6749 10.636 15.4479 10.7698 15.3252 10.9031 15.2031 11.0545 15.1275 11.1783 15.0796zM14.0364 12.6464C14.2014 12.38 14.5273 12.0625 15.0162 12.0625 15.505 12.0625 15.8309 12.38 15.9959 12.6464 16.168 12.9243 16.25 13.2612 16.25 13.5938 16.25 13.9263 16.168 14.2632 15.9959 14.5411 15.8309 14.8075 15.505 15.125 15.0162 15.125 14.5273 15.125 14.2014 14.8075 14.0364 14.5411 13.8643 14.2632 13.7823 13.9263 13.7823 13.5938 13.7823 13.2612 13.8643 12.9243 14.0364 12.6464zM8.03648 12.6464C8.20151 12.38 8.52741 12.0625 9.01624 12.0625 9.50508 12.0625 9.83098 12.38 9.996 12.6464 10.1681 12.9243 10.2501 13.2612 10.2501 13.5938 10.2501 13.9263 10.1681 14.2632 9.996 14.5411 9.83098 14.8075 9.50508 15.125 9.01624 15.125 8.52741 15.125 8.20151 14.8075 8.03648 14.5411 7.86435 14.2632 7.78237 13.9263 7.78237 13.5938 7.78237 13.2612 7.86435 12.9243 8.03648 12.6464zM17.8633 14.375C17.8633 13.9608 18.1991 13.625 18.6133 13.625 18.909 13.625 19.2635 13.6924 19.5939 13.7737 19.9386 13.8585 20.3133 13.9729 20.6704 14.095 21.3543 14.3289 22.0796 14.6271 22.4073 14.8387 22.7552 15.0634 22.8551 15.5277 22.6304 15.8756 22.4057 16.2236 21.9414 16.3235 21.5935 16.0988 21.4373 15.9979 20.8722 15.7493 20.1852 15.5144 19.8568 15.4021 19.5259 15.3017 19.2355 15.2302 18.9308 15.1553 18.7207 15.125 18.6133 15.125 18.1991 15.125 17.8633 14.7892 17.8633 14.375zM17.2178 16.875C17.2178 16.4608 17.5536 16.125 17.9678 16.125 18.568 16.125 19.1924 16.4004 19.6488 16.6416 20.0585 16.8581 20.4387 17.1067 20.6811 17.2652 20.7231 17.2926 20.7609 17.3173 20.794 17.3387 21.142 17.5634 21.2419 18.0277 21.0172 18.3756 20.7924 18.7236 20.3282 18.8235 19.9802 18.5988 19.9391 18.5722 19.8953 18.5436 19.849 18.5134 19.6037 18.3533 19.29 18.1485 18.948 17.9678 18.5174 17.7402 18.174 17.625 17.9678 17.625 17.5536 17.625 17.2178 17.2892 17.2178 16.875zM3.81522 15.5144C3.12814 15.7493 2.56311 15.9979 2.40689 16.0988 2.05894 16.3235 1.59469 16.2236 1.36997 15.8756 1.14525 15.5277 1.24515 15.0634 1.5931 14.8387 1.92076 14.6271 2.64605 14.3289 3.32994 14.095 3.68709 13.9729 4.06181 13.8585 4.40651 13.7737 4.73687 13.6924 5.09134 13.625 5.3871 13.625 5.80132 13.625 6.1371 13.9608 6.1371 14.375 6.1371 14.7892 5.80132 15.125 5.3871 15.125 5.27963 15.125 5.06959 15.1553 4.76487 15.2302 4.47449 15.3017 4.14356 15.4021 3.81522 15.5144zM4.15089 18.5134C4.10464 18.5436 4.06081 18.5722 4.01968 18.5988 3.67173 18.8235 3.20748 18.7236 2.98276 18.3756 2.75804 18.0277 2.85794 17.5634 3.2059 17.3387 3.23903 17.3173 3.27685 17.2926 3.3188 17.2652 3.56121 17.1067 3.94139 16.8581 4.35111 16.6416 4.80755 16.4004 5.43189 16.125 6.03215 16.125 6.44636 16.125 6.78215 16.4608 6.78215 16.875 6.78215 17.2892 6.44636 17.625 6.03215 17.625 5.82596 17.625 5.48255 17.7402 5.0519 17.9678 4.7099 18.1485 4.39622 18.3533 4.15089 18.5134z" clip-rule="evenodd"></path>
</svg>
