<?xml version="1.0" standalone="no"?>
<!DOCTYPE svg PUBLIC "-//W3C//DTD SVG 20010904//EN"
 "http://www.w3.org/TR/2001/REC-SVG-20010904/DTD/svg10.dtd">
<svg version="1.0" xmlns="http://www.w3.org/2000/svg"
 width="755.000000pt" height="486.000000pt" viewBox="0 0 755.000000 486.000000"
 preserveAspectRatio="xMidYMid meet">

<g transform="translate(0.000000,486.000000) scale(0.100000,-0.100000)"
fill="#000000" stroke="none">
<path d="M2680 4095 c-20 -25 -6 -31 17 -7 14 14 18 22 9 22 -8 0 -19 -7 -26
-15z"/>
<path d="M4853 4088 c12 -13 24 -19 25 -15 5 11 -18 37 -34 37 -9 0 -5 -8 9
-22z"/>
<path d="M2932 3977 c-48 -18 -99 -63 -125 -110 l-22 -42 0 -815 c0 -766 1
-818 18 -862 22 -55 83 -113 136 -128 53 -15 1622 -13 1672 1 50 16 105 61
132 112 l22 42 0 815 c0 654 -3 822 -13 853 -20 55 -59 97 -117 123 l-50 24
-810 -1 c-597 0 -819 -4 -843 -12z m1705 -83 c61 -45 58 -3 58 -894 0 -900 3
-852 -64 -897 -33 -22 -40 -23 -277 -23 l-244 0 0 408 0 407 67 58 c65 56 68
57 113 51 118 -16 202 94 151 198 -36 76 -113 103 -186 68 -72 -35 -102 -114
-71 -190 4 -11 -17 -35 -69 -79 l-75 -64 0 -429 0 -428 -65 0 -65 0 0 463 1
462 84 73 85 73 0 132 0 132 39 22 c65 37 90 127 56 194 -48 92 -202 92 -250
0 -36 -70 -5 -169 62 -197 l33 -14 0 -110 0 -109 -90 -78 -90 -78 0 -482 0
-483 -55 0 -55 0 0 329 0 329 -100 88 -100 89 0 107 0 107 29 15 c16 9 41 30
56 48 24 29 27 38 23 90 -3 47 -10 64 -33 88 -63 65 -155 62 -215 -7 -30 -34
-32 -40 -28 -95 3 -47 10 -64 33 -88 16 -17 40 -33 52 -36 23 -6 23 -9 23
-144 l0 -138 95 -83 95 -83 0 -308 0 -308 -65 0 -65 0 0 274 0 274 -80 72
c-78 71 -80 73 -74 110 13 82 -38 153 -120 165 -113 17 -195 -93 -147 -199 31
-71 114 -102 192 -71 11 4 40 -15 93 -61 l76 -66 0 -249 0 -249 -252 0 c-278
0 -299 4 -342 63 -21 28 -21 35 -21 850 0 908 -4 859 64 904 l34 23 828 -2
c822 -3 828 -3 856 -24z m-533 -284 c11 -11 19 -32 19 -49 0 -92 -142 -96
-145 -4 -2 72 73 103 126 53z m-562 -274 c46 -34 35 -119 -16 -132 -43 -10
-76 4 -91 38 -30 73 47 140 107 94z m823 -141 c70 -69 -30 -170 -102 -103 -50
47 -14 125 60 127 10 1 29 -10 42 -24z m-1078 -307 c48 -45 13 -128 -54 -128
-32 0 -73 42 -73 75 0 34 42 75 76 75 15 0 38 -10 51 -22z"/>
<path d="M2670 1936 c0 -16 26 -39 37 -34 4 1 -2 13 -14 25 -15 14 -23 18 -23
9z"/>
<path d="M4853 1923 c-14 -15 -18 -23 -9 -23 16 0 39 26 34 37 -1 4 -13 -2
-25 -14z"/>
<path d="M1502 1663 c-171 -51 -235 -263 -114 -379 41 -39 112 -69 260 -108
164 -44 202 -65 202 -113 0 -33 -32 -61 -85 -74 -25 -6 -52 -21 -60 -32 -17
-25 -20 -90 -5 -118 24 -44 164 -11 240 58 81 73 102 175 54 271 -42 84 -105
116 -360 182 -101 26 -144 51 -144 83 0 30 35 63 85 79 l40 13 3 69 c4 93 -9
100 -116 69z"/>
<path d="M1706 1658 c-18 -26 -21 -90 -6 -119 6 -10 27 -26 47 -34 50 -21 71
-41 78 -76 9 -38 31 -49 99 -49 65 0 82 19 71 78 -20 109 -112 193 -237 216
-31 6 -39 3 -52 -16z"/>
<path d="M2266 1658 c-12 -17 -16 -49 -16 -128 0 -137 3 -142 95 -138 l70 3 3
129 c2 86 -1 133 -9 142 -7 9 -32 14 -70 14 -48 0 -60 -4 -73 -22z"/>
<path d="M2512 1446 c-137 -129 -252 -242 -256 -251 -10 -27 -7 -311 4 -340
10 -25 12 -26 82 -23 l73 3 5 152 c3 83 7 153 10 155 3 2 28 25 56 51 l51 48
142 -206 143 -206 81 3 c80 3 82 4 85 28 2 20 -37 82 -162 260 l-165 235 139
133 c77 74 140 141 140 151 0 32 -22 41 -101 41 l-77 0 -250 -234z"/>
<path d="M3102 1668 c-6 -6 -12 -19 -12 -27 0 -18 152 -240 172 -253 7 -4 41
-8 75 -8 62 0 93 15 93 44 0 7 -37 67 -83 132 l-82 119 -75 3 c-50 2 -79 -1
-88 -10z"/>
<path d="M3733 1658 c-11 -13 -86 -118 -166 -234 l-147 -212 0 -184 c0 -130 4
-188 12 -196 16 -16 130 -16 146 0 8 8 12 60 12 168 l0 156 160 231 c158 229
180 273 144 287 -9 3 -44 6 -78 6 -52 0 -66 -4 -83 -22z"/>
<path d="M4345 1661 c-197 -71 -310 -269 -275 -486 14 -87 51 -162 113 -231
74 -82 223 -146 262 -114 16 13 21 115 7 136 -4 6 -31 22 -59 34 -169 72 -216
300 -92 435 25 27 59 51 87 61 62 23 72 37 72 104 0 84 -21 95 -115 61z"/>
<path d="M4543 1669 c-14 -14 -18 -117 -5 -135 4 -6 29 -21 56 -33 27 -12 73
-44 102 -71 50 -47 56 -50 107 -50 54 0 87 18 87 49 0 23 -68 117 -115 158
-68 61 -205 109 -232 82z"/>
<path d="M5172 1668 c-8 -8 -12 -54 -12 -140 l0 -128 26 -10 c37 -14 97 -12
120 4 16 12 19 29 22 123 2 60 -1 120 -7 136 -10 25 -14 27 -74 27 -36 0 -68
-5 -75 -12z"/>
<path d="M5552 1668 c-7 -7 -12 -39 -12 -73 0 -34 5 -66 12 -73 7 -7 41 -12
84 -12 64 0 75 3 88 22 18 25 21 100 6 129 -9 16 -22 19 -88 19 -47 0 -83 -5
-90 -12z"/>
<path d="M5822 1668 c-17 -17 -17 -819 0 -836 16 -16 130 -16 146 0 9 9 12 99
12 345 l0 333 123 0 c82 0 127 4 135 12 16 16 16 130 0 146 -17 17 -399 17
-416 0z"/>
<path d="M5172 1328 c-9 -9 -12 -78 -12 -250 l0 -238 26 -10 c37 -14 97 -12
120 4 18 13 19 30 22 236 4 268 3 270 -86 270 -32 0 -63 -5 -70 -12z"/>
<path d="M4476 1304 c-18 -17 -22 -109 -6 -134 7 -12 37 -16 140 -18 71 -2
130 -7 130 -11 0 -4 -13 -28 -30 -53 -29 -44 -108 -98 -144 -98 -23 0 -36 -32
-36 -93 0 -36 5 -59 15 -67 21 -18 77 -7 151 30 136 67 234 231 234 390 0 68
-6 70 -235 70 -172 0 -206 -2 -219 -16z"/>
<path d="M1310 1115 c-11 -13 -11 -26 -1 -68 17 -75 56 -134 109 -168 57 -36
145 -63 178 -55 23 6 24 11 24 76 l0 70 -52 24 c-62 27 -83 48 -95 96 l-9 35
-71 3 c-54 2 -73 -1 -83 -13z"/>
</g>
</svg>
